<svg role="img" viewBox="0 0 24 24" xmlns="http://www.w3.org/2000/svg">
  <title>LeetCode</title>
  <path fill="#FFA116" d="M13.483 0a1.374 1.374 0 0 0-.961.438L7.116 6.226l-3.854 4.126a5.266 5.266 0 0 0-1.209 2.104 5.35 5.35 0 0 0-.125.513 5.527 5.527 0 0 0 .062 2.362 5.83 5.83 0 0 0 .349 1.017 5.938 5.938 0 0 0 1.271 1.818l4.277 4.193.039.038c2.248 2.165 5.852 2.133 8.063-.074l2.396-2.392c.54-.54.54-1.414.003-1.955a1.378 1.378 0 0 0-1.951-.003l-2.396 2.392a3.021 3.021 0 0 1-4.205.038l-.02-.019-4.276-4.19a3.037 3.037 0 0 1-.062-4.194l3.856-4.122 3.96-3.955a3.03 3.03 0 0 1 4.281.02c1.13 1.171 1.09 3.053-.094 4.17l-4.73 4.46a.734.734 0 0 0-.229.531c-.004.244.121.47.34.577.22.108.48.097.691-.034l4.73-4.46a5.52 5.52 0 0 0 1.623-4.032 5.503 5.503 0 0 0-1.745-3.914L14.444.426A1.36 1.36 0 0 0 13.483 0zm-5.27 17.11a1.002 1.002 0 0 0-.22.61c.003.22.115.42.302.53a.999.999 0 0 0 .979-.03l3.526-2.48a1.003 1.003 0 0 0-.22-1.78l-3.526-.84a1.002 1.002 0 0 0-1.077.53 1 1 0 0 0-.012.87z" />
</svg>
